<?xml version="1.0" encoding="UTF-8"?>
<svg width="188.03" height="186.3" clip-rule="evenodd" fill-rule="evenodd" stroke-linecap="round" stroke-miterlimit="5" version="1.1" viewBox="0 0 188.03 186.3" xml:space="preserve" xmlns="http://www.w3.org/2000/svg" xmlns:cc="http://creativecommons.org/ns#" xmlns:dc="http://purl.org/dc/elements/1.1/" xmlns:rdf="http://www.w3.org/1999/02/22-rdf-syntax-ns#"><metadata><rdf:RDF><cc:Work rdf:about=""><dc:format>image/svg+xml</dc:format><dc:type rdf:resource="http://purl.org/dc/dcmitype/StillImage"/><dc:title/></cc:Work></rdf:RDF></metadata><defs><marker id="a" overflow="visible" orient="auto"><path transform="matrix(.2 0 0 .2 1.48 .2)" d="m-2.5-1c0 2.76-2.24 5-5 5s-5-2.24-5-5 2.24-5 5-5 5 2.24 5 5z" fill="#fff" fill-rule="evenodd" stroke="#fff" stroke-width="1pt"/></marker><marker id="DotS" overflow="visible" orient="auto"><path transform="matrix(.2 0 0 .2 1.48 .2)" d="m-2.5-1c0 2.76-2.24 5-5 5s-5-2.24-5-5 2.24-5 5-5 5 2.24 5 5z" fill="#333" fill-rule="evenodd" stroke="#333" stroke-width="1pt"/></marker></defs><path d="m165.26 2.0187-47.89 41.474 20.736 5.986 1e-3 24.885-11.973 10.368-20.737-5.986v24.884l20.737 5.987 11.973-10.369v24.885l-11.973 10.368-20.737-5.986v24.884l20.737 5.986 11.973-10.368v24.884l47.889-41.473 1e-3 -124.42z" fill="#9b9b9b"/><g fill="none"><g stroke="#333" stroke-width="4px"><path d="m138.11 149.02v24.884"/><path d="m126.14 184.27 11.973-10.369"/><path d="m126.14 109.62 11.973-10.369"/><path d="m126.14 134.5 11.973-10.368"/><path d="m126.14 84.732 11.973-10.368"/><path d="m105.4 78.746v24.884"/><path d="m126.14 59.848-55.067-16.031"/><path d="m138.11 49.479v24.885"/><path d="m126.14 109.62v24.884"/><path d="m138.11 99.248v24.885"/><path d="m126.14 59.848 11.973-10.369"/><path d="m126.14 59.848v24.884"/><path d="m71.068 43.816 11.973-10.369"/><path d="m138.11 49.479-55.067-16.031"/><path d="m105.4 128.51v24.884"/><path d="m126.14 109.62-20.737-5.987"/><path d="m126.14 84.732-20.737-5.986"/><path d="m126.14 134.5-20.737-5.986"/><path d="m126.14 184.27-55.067-16.031"/><path d="m126.14 159.38 11.973-10.368"/><path d="m126.14 159.38-20.737-5.986"/><path d="m126.14 159.38v24.885"/><path d="m71.068 43.816v124.42"/><path d="m105.4 128.51v24.884"/><path d="m117.37 43.493 47.89-41.474"/><path d="m138.11 49.479-20.737-5.986"/><path d="m165.26 2.0187 20.737 5.987"/><path d="m105.4 78.746v24.884"/><path d="m138.11 149.02v24.884"/><path d="m138.11 173.9 47.89-41.474"/><path d="m186 8.0057v124.42"/><path d="m138.11 49.479 47.89-41.473"/><path d="m138.11 49.479v24.885"/></g><g stroke-width="4px"><path d="m126.14 84.732v24.885" stroke="#666"/><path d="m126.14 109.62 11.973-10.369" stroke="#333"/><path d="m126.14 134.5v24.884" stroke="#666"/><path d="m138.11 99.248v24.885" stroke="#333"/><path d="m126.14 134.5 11.973-10.368" stroke="#333"/></g><g stroke="#fff" stroke-linecap="round" stroke-linejoin="round" stroke-miterlimit="5" stroke-width="14.01"><path d="m51.459 156.03-44.357-11.886"/><path d="m51.459 156.03-32.472-32.472"/><path d="m51.459 156.03 44.357-11.886"/><path d="m51.459 156.03 32.472-32.472"/></g><g stroke="#333" stroke-linecap="round" stroke-linejoin="round" stroke-miterlimit="5" stroke-width="7.7834"><path d="m51.459 156.03 44.357-11.886"/><path d="m51.459 156.03-44.357-11.886"/><path d="m51.459 156.03 32.472-32.472"/><path d="m51.459 156.03-32.472-32.472"/></g><path d="m51.459 27.113v123.11" marker-end="url(#a)" stroke="#fff" stroke-linecap="round" stroke-linejoin="round" stroke-miterlimit="5" stroke-width="12"/><g stroke="#333"><path d="m51.459 27.113v123.11" marker-end="url(#DotS)" stroke-linecap="round" stroke-linejoin="round" stroke-miterlimit="5" stroke-width="9"/><path d="m51.459 27.113v123.11" stroke-linecap="round" stroke-linejoin="round" stroke-miterlimit="5" stroke-width="10"/><g stroke-width="4px"><path d="m126.14 84.732 11.973-10.368"/><path d="m126.14 109.62-20.737-5.987"/><path d="m126.14 84.732-20.737-5.986"/><path d="m126.14 134.5-20.737-5.986"/><path d="m126.14 159.38 11.973-10.368"/><path d="m126.14 159.38-20.737-5.986"/></g></g></g></svg>
