<?xml version="1.0" encoding="utf-8"?>
<!-- Generator: Adobe Illustrator 23.0.4, SVG Export Plug-In . SVG Version: 6.00 Build 0)  -->
<svg version="1.1" id="Layer_1" xmlns="http://www.w3.org/2000/svg" xmlns:xlink="http://www.w3.org/1999/xlink" x="0px" y="0px"
	 viewBox="0 0 20 20" style="enable-background:new 0 0 20 20;" xml:space="preserve">
<style type="text/css">
	.st0{fill:#999999;}
	.st1{fill:none;stroke:#333333;stroke-width:1.3;stroke-miterlimit:10;}
	.st2{fill:none;stroke:#333333;stroke-width:0.5;stroke-miterlimit:10;}
	.st3{fill:none;stroke:#333333;stroke-width:0.15;stroke-miterlimit:10;}
</style>
<g>
	<path class="st0" d="M14.5,11.7H14v3c0,0.8,0.7,1.5,1.5,1.5h3.2V19H6.5v-2.8h3c0.1,0,0.2,0,0.2,0c0.7,0,1.2-0.6,1.2-1.2
		c0-0.1,0-0.1,0-0.2v-4.5c0-0.8-0.7-1.5-1.5-1.5h-3V6.5h12.2v2.7h-3.4l0,0"/>
</g>
<path class="st1" d="M5.8,9L1.2,4.5V1.2h12.5l5,5v0.2v2.8h-3.4c-0.5,0-0.9,0.5-0.9,1v1.5l4.3,4.2v0.2V19H6.5H6l-4.8-4.8V11h4
	C5.7,11,6,10.6,6,10.2v-1L5.8,9z"/>
<path class="st2" d="M14.5,11.8H14v2.9c0,0.9,0.7,1.5,1.5,1.5h3.2"/>
<path class="st2" d="M6,8.8h0.5h3c0.8,0,1.5,0.7,1.5,1.5v4.5c0,0.1,0,0,0,0c0,0.9-0.6,1.4-1.4,1.4c-0.1,0,0.1,0,0,0H6.5V19"/>
<polyline class="st2" points="18.8,6.5 6.5,6.5 6.5,8.8 "/>
<line class="st2" x1="6.6" y1="16.3" x2="1.9" y2="11.6"/>
<line class="st2" x1="1.8" y1="1.8" x2="6.5" y2="6.5"/>
<polyline class="st3" points="9.8,16.2 9.7,16.2 4.8,11.2 "/>
<polyline class="st3" points="11,15 11,15 6.2,10.2 "/>
</svg>
