<svg xmlns="http://www.w3.org/2000/svg" viewBox="0 0 18.39 18.39"><defs><style>.cls-1{fill:#333;stroke:#000;stroke-miterlimit:10;stroke-width:1.35px;}.cls-2{fill:#999;}</style></defs><title>Layer 1</title><g id="Layer_2" data-name="Layer 2"><g id="Layer_1-2" data-name="Layer 1"><path class="cls-1" d="M8,17.41l-.4-1.79-1-.29-.87-.46-1.54,1a.39.39,0,0,1-.48,0L2.59,14.64a.38.38,0,0,1,0-.48l1-1.54-.46-.87-.3-1L1,10.39A.38.38,0,0,1,.68,10V8.37A.37.37,0,0,1,1,8l1.78-.4.3-1,.46-.87-1-1.54a.38.38,0,0,1,0-.48L3.75,2.59a.38.38,0,0,1,.48,0l1.54,1,.87-.46,1-.29L8,1a.37.37,0,0,1,.37-.3H10a.38.38,0,0,1,.38.3l.39,1.79,1,.29.87.46,1.55-1a.38.38,0,0,1,.48,0L15.8,3.75a.38.38,0,0,1,0,.48l-1,1.54.47.87.29,1,1.79.4a.37.37,0,0,1,.3.37V10a.38.38,0,0,1-.3.38l-1.79.4-.29,1-.47.87,1,1.54a.38.38,0,0,1,0,.48L14.64,15.8a.39.39,0,0,1-.48,0l-1.54-1-.88.46-1,.29-.39,1.79a.38.38,0,0,1-.38.3H8.37A.37.37,0,0,1,8,17.41Zm4.1-8.22A2.91,2.91,0,1,0,9.19,12.1,2.9,2.9,0,0,0,12.1,9.19Z"/><path class="cls-2" d="M8.37,17.33l-.44-2a6.18,6.18,0,0,1-2.18-.9L4,15.52,2.86,14.36,4,12.64a6.44,6.44,0,0,1-.91-2.19l-2-.44V8.37l2-.44A6.47,6.47,0,0,1,4,5.75L2.86,4,4,2.87,5.75,4a6.25,6.25,0,0,1,2.18-.9l.44-2H10l.44,2a6.18,6.18,0,0,1,2.18.9l1.74-1.1L15.52,4l-1.1,1.73a6.25,6.25,0,0,1,.9,2.18l2,.44V10l-2,.44a6.22,6.22,0,0,1-.9,2.19l1.1,1.72-1.15,1.16-1.73-1.1a6.3,6.3,0,0,1-2.19.9l-.44,2Zm4-8.14a3.17,3.17,0,1,0-3.17,3.17A3.17,3.17,0,0,0,12.36,9.19Z"/></g></g></svg>